<svg xmlns="http://www.w3.org/2000/svg" viewBox="0 0 32 32" role="img" aria-label="Courier sprite" shape-rendering="crispEdges">
  <rect x="10" y="2" width="12" height="2" fill="#5d3f8c"/>
  <rect x="9" y="4" width="14" height="2" fill="#7350a7"/>

  <rect x="10" y="6" width="12" height="8" fill="#ecb389"/>
  <rect x="11" y="7" width="10" height="6" fill="#f5c5a0"/>
  <rect x="12" y="9" width="2" height="2" fill="#222"/>
  <rect x="18" y="9" width="2" height="2" fill="#222"/>
  <rect x="14" y="12" width="4" height="1" fill="#8f5d3f"/>

  <rect x="9" y="14" width="14" height="10" fill="#7b56af"/>
  <rect x="7" y="15" width="2" height="8" fill="#9469c9"/>
  <rect x="23" y="15" width="2" height="8" fill="#9469c9"/>
  <rect x="8" y="24" width="16" height="2" fill="#61428f"/>

  <rect x="22" y="16" width="6" height="6" fill="#f8efe1"/>
  <rect x="23" y="17" width="4" height="1" fill="#c4ab83"/>
  <rect x="23" y="19" width="4" height="1" fill="#c4ab83"/>

  <rect x="11" y="24" width="4" height="7" fill="#5c3d89"/>
  <rect x="17" y="24" width="4" height="7" fill="#5c3d89"/>

  <rect x="8" y="30" width="7" height="1" fill="#293a58" opacity="0.32"/>
  <rect x="17" y="30" width="7" height="1" fill="#293a58" opacity="0.32"/>
</svg>
